<svg width="216" height="36" viewBox="0 0 216 36" fill="none" xmlns="http://www.w3.org/2000/svg">
<path d="M47.52 33C46.2133 33 45.1733 32.64 44.4 31.92C43.6533 31.2 43.28 30.1467 43.28 28.76V23.12C43.28 20.2933 43.7067 18.1467 44.56 16.68C45.4133 15.2133 46.4933 14.16 47.8 13.52L47.6 12.76H46.92C45.6933 12.76 44.72 12.3733 44 11.6C43.3067 10.8 42.9467 9.72 42.92 8.36C42.8933 7.02667 43.24 5.96 43.96 5.16C44.7067 4.36 45.6933 3.96 46.92 3.96H60.92C63.7733 3.96 65.2 5.29333 65.2 7.96C65.2 9.16 64.8533 10.12 64.16 10.84C63.4667 11.56 62.3867 11.92 60.92 11.92H53.12C52.1333 11.92 51.64 12.4933 51.64 13.64V16.52C52.8933 16.1733 54.2 15.7733 55.56 15.32C56.92 14.8667 58.2267 14.64 59.48 14.64C60.8133 14.64 61.84 14.9733 62.56 15.64C63.3067 16.28 63.68 17.2667 63.68 18.6C63.68 19.9067 63.3067 20.8933 62.56 21.56C61.84 22.2 60.8133 22.5333 59.48 22.56C58.2267 22.5867 56.9067 22.3867 55.52 21.96C54.16 21.5067 52.8533 21.1067 51.6 20.76L51.56 28.76C51.56 30.1467 51.1867 31.2 50.44 31.92C49.72 32.64 48.7467 33 47.52 33ZM70.5509 33C69.2443 33 68.2576 32.6533 67.5909 31.96C66.9509 31.2667 66.6309 30.4 66.6309 29.36V6.16C66.6309 5.01333 66.9509 4.06666 67.5909 3.32C68.2576 2.54667 69.2443 2.16 70.5509 2.16C71.7243 2.16 72.6309 2.54667 73.2709 3.32C73.9109 4.06666 74.2309 4.98666 74.2309 6.08V29.36C74.2309 30.4 73.9109 31.2667 73.2709 31.96C72.6309 32.6533 71.7243 33 70.5509 33ZM76.0841 22.6C76.0841 20.4933 76.4974 18.64 77.3241 17.04C78.1774 15.44 79.3774 14.1867 80.9241 13.28C82.4974 12.3733 84.3641 11.92 86.5241 11.92C88.2041 11.92 89.7107 12.2267 91.0441 12.84C92.4041 13.4533 93.4707 14.28 94.2441 15.32C95.0174 16.3333 95.4041 17.4533 95.4041 18.68C95.4041 19.96 95.0307 20.8667 94.2841 21.4C93.5374 21.9333 92.4307 22.2 90.9641 22.2H82.5641C82.5641 22.8933 82.8307 23.4667 83.3641 23.92C83.9241 24.3733 84.8574 24.6 86.1641 24.6C86.8307 24.6 87.4441 24.5333 88.0041 24.4C88.5907 24.2667 89.1774 24.1467 89.7641 24.04C90.3774 23.9067 91.0574 23.84 91.8041 23.84C92.8707 23.84 93.7507 24.2267 94.4441 25C95.1374 25.7467 95.4841 26.7867 95.4841 28.12C95.4841 29.6933 94.6707 30.92 93.0441 31.8C91.4441 32.68 89.3374 33.12 86.7241 33.12C84.8841 33.12 83.1507 32.76 81.5241 32.04C79.9241 31.32 78.6174 30.1867 77.6041 28.64C76.5907 27.0667 76.0841 25.0533 76.0841 22.6ZM89.0441 20.88C89.4441 20.88 89.5774 20.6933 89.4441 20.32C89.3374 19.9467 89.0174 19.56 88.4841 19.16C87.9507 18.76 87.1774 18.56 86.1641 18.56C84.9907 18.56 84.1107 18.8133 83.5241 19.32C82.9641 19.8267 82.6841 20.3467 82.6841 20.88H89.0441ZM101.459 33.16C99.9121 33.16 98.7388 32.72 97.9388 31.84C97.1654 30.9333 96.7788 29.8667 96.7788 28.64C96.7788 27.8667 96.9788 27.0667 97.3788 26.24C97.7788 25.4133 98.4454 24.7067 99.3788 24.12C99.9121 23.7733 100.592 23.5067 101.419 23.32C102.272 23.1067 103.032 22.9333 103.699 22.8C102.232 22.3467 101.085 21.8133 100.259 21.2C99.4321 20.5867 98.7521 19.96 98.2188 19.32C97.4721 18.3067 97.1254 17.2133 97.1788 16.04C97.2588 14.84 97.8054 13.8133 98.8188 12.96C99.5388 12.3467 100.325 12.0267 101.179 12C102.059 11.9733 102.899 12.2 103.699 12.68C104.499 13.16 105.152 13.8667 105.659 14.8C106.245 15.84 106.659 16.7467 106.899 17.52C107.165 18.2667 107.459 18.9467 107.779 19.56C108.125 20.1733 108.672 20.7867 109.419 21.4C109.739 21.2933 110.019 21.1467 110.259 20.96C110.499 20.7733 110.765 20.4 111.059 19.84C110.392 19.68 109.792 19.28 109.259 18.64C108.725 18 108.459 17.1067 108.459 15.96C108.459 14.7333 108.832 13.76 109.579 13.04C110.325 12.2933 111.432 11.92 112.899 11.92C114.099 11.92 115.072 12.32 115.819 13.12C116.565 13.8933 116.939 14.8667 116.939 16.04C116.939 17.2933 116.685 18.2933 116.179 19.04C115.699 19.76 115.045 20.3867 114.219 20.92C113.792 21.24 113.272 21.52 112.659 21.76C112.045 21.9733 111.392 22.16 110.699 22.32C111.792 22.48 112.832 22.7867 113.819 23.24C114.805 23.6933 115.712 24.3467 116.539 25.2C117.152 25.8133 117.565 26.56 117.779 27.44C118.019 28.2933 118.019 29.1467 117.779 30C117.565 30.8533 117.099 31.5733 116.379 32.16C115.632 32.7467 114.805 33.0533 113.899 33.08C112.992 33.1067 112.125 32.8933 111.299 32.44C110.499 31.96 109.859 31.28 109.379 30.4C108.899 29.52 108.525 28.6533 108.259 27.8C107.992 26.92 107.685 26.12 107.339 25.4C107.019 24.6533 106.539 24.0533 105.899 23.6C105.472 23.84 105.219 24.1333 105.139 24.48C105.059 24.8 105.072 25.1733 105.179 25.6C105.312 26 105.445 26.44 105.579 26.92C105.739 27.3733 105.819 27.8533 105.819 28.36C105.819 29.16 105.659 29.9333 105.339 30.68C105.019 31.4 104.525 32 103.859 32.48C103.219 32.9333 102.419 33.16 101.459 33.16ZM119.443 7.44C119.443 6.29333 119.79 5.37333 120.483 4.68C121.203 3.96 122.19 3.6 123.443 3.6C124.777 3.6 125.763 3.94667 126.403 4.64C127.07 5.33333 127.403 6.25333 127.403 7.4C127.403 8.52 127.07 9.42666 126.403 10.12C125.763 10.7867 124.777 11.12 123.443 11.12C122.137 11.12 121.137 10.7867 120.443 10.12C119.777 9.42666 119.443 8.53333 119.443 7.44ZM123.443 33C122.19 33 121.257 32.6533 120.643 31.96C120.03 31.2667 119.723 30.4 119.723 29.36V15.68C119.723 14.5333 120.03 13.6267 120.643 12.96C121.257 12.2933 122.19 11.96 123.443 11.96C124.697 11.96 125.63 12.2933 126.243 12.96C126.883 13.6267 127.203 14.5067 127.203 15.6V29.36C127.203 30.4 126.87 31.2667 126.203 31.96C125.563 32.6533 124.643 33 123.443 33ZM133.848 33C132.541 33 131.501 32.64 130.728 31.92C129.981 31.2 129.608 30.1467 129.608 28.76V23.12C129.608 20.2933 130.035 18.1467 130.888 16.68C131.741 15.2133 132.821 14.16 134.128 13.52L133.928 12.76H133.248C132.021 12.76 131.048 12.3733 130.328 11.6C129.635 10.8 129.275 9.72 129.248 8.36C129.221 7.02667 129.568 5.96 130.288 5.16C131.035 4.36 132.021 3.96 133.248 3.96H147.248C150.101 3.96 151.528 5.29333 151.528 7.96C151.528 9.16 151.181 10.12 150.488 10.84C149.795 11.56 148.715 11.92 147.248 11.92H139.448C138.461 11.92 137.968 12.4933 137.968 13.64V16.52C139.221 16.1733 140.528 15.7733 141.888 15.32C143.248 14.8667 144.555 14.64 145.808 14.64C147.141 14.64 148.168 14.9733 148.888 15.64C149.635 16.28 150.008 17.2667 150.008 18.6C150.008 19.9067 149.635 20.8933 148.888 21.56C148.168 22.2 147.141 22.5333 145.808 22.56C144.555 22.5867 143.235 22.3867 141.848 21.96C140.488 21.5067 139.181 21.1067 137.928 20.76L137.888 28.76C137.888 30.1467 137.515 31.2 136.768 31.92C136.048 32.64 135.075 33 133.848 33ZM156.879 33C155.572 33 154.586 32.6533 153.919 31.96C153.279 31.2667 152.959 30.4 152.959 29.36V6.16C152.959 5.01333 153.279 4.06666 153.919 3.32C154.586 2.54667 155.572 2.16 156.879 2.16C158.052 2.16 158.959 2.54667 159.599 3.32C160.239 4.06666 160.559 4.98666 160.559 6.08V29.36C160.559 30.4 160.239 31.2667 159.599 31.96C158.959 32.6533 158.052 33 156.879 33ZM172.652 33.08C169.532 33.08 167.039 32.16 165.172 30.32C163.332 28.4533 162.412 25.8267 162.412 22.44C162.412 20.36 162.839 18.5333 163.692 16.96C164.546 15.3867 165.732 14.16 167.252 13.28C168.799 12.3733 170.599 11.92 172.652 11.92C174.946 11.92 176.852 12.3733 178.372 13.28C179.892 14.16 181.026 15.3867 181.772 16.96C182.546 18.5333 182.932 20.36 182.932 22.44C182.932 25.8267 182.079 28.4533 180.372 30.32C178.692 32.16 176.119 33.08 172.652 33.08ZM167.172 21.76C167.172 22.5867 167.586 23.1733 168.412 23.52C169.239 23.84 170.652 24 172.652 24C174.652 24 176.066 23.84 176.892 23.52C177.719 23.1733 178.132 22.5867 178.132 21.76C178.132 20.96 177.719 20.4 176.892 20.08C176.066 19.76 174.652 19.6 172.652 19.6C170.652 19.6 169.239 19.76 168.412 20.08C167.586 20.4 167.172 20.96 167.172 21.76ZM192.711 33C191.164 33 189.897 32.4933 188.911 31.48C187.951 30.4667 187.071 28.8 186.271 26.48L183.231 17.44C182.884 16.4267 182.871 15.4 183.191 14.36C183.511 13.32 184.244 12.6133 185.391 12.24C186.457 11.8667 187.431 11.8933 188.311 12.32C189.191 12.7467 189.804 13.48 190.151 14.52L193.431 24.32C193.804 25.4667 194.191 26.24 194.591 26.64C194.991 27.0133 195.524 27.0933 196.191 26.88C196.751 26.6933 197.097 26.2933 197.231 25.68C197.391 25.04 197.204 23.9467 196.671 22.4L195.031 17.44C194.684 16.4 194.671 15.3733 194.991 14.36C195.337 13.32 196.084 12.6133 197.231 12.24C198.297 11.8667 199.271 11.8933 200.151 12.32C201.031 12.7467 201.644 13.48 201.991 14.52L205.351 24.76C205.564 25.3733 205.897 25.9333 206.351 26.44C206.804 26.9467 207.391 27.0933 208.111 26.88C208.671 26.6933 209.031 26.32 209.191 25.76C209.377 25.2 209.351 24.5467 209.111 23.8C208.791 22.7867 208.431 21.9867 208.031 21.4C207.657 20.8133 207.284 20.3067 206.911 19.88C206.564 19.4533 206.271 19 206.031 18.52C205.817 18.04 205.684 17.3867 205.631 16.56C205.577 15.7067 205.751 14.96 206.151 14.32C206.577 13.6533 207.137 13.1333 207.831 12.76C208.551 12.3867 209.337 12.2 210.191 12.2C211.497 12.2 212.551 12.64 213.351 13.52C214.177 14.3733 214.591 15.3867 214.591 16.56C214.591 16.9867 214.524 17.5467 214.391 18.24C214.257 18.9333 214.084 19.5733 213.871 20.16L212.191 24.52C211.844 25.48 211.444 26.4667 210.991 27.48C210.564 28.4667 210.057 29.3733 209.471 30.2C208.911 31.0267 208.257 31.7067 207.511 32.24C206.764 32.7467 205.897 33 204.911 33C203.204 33 201.831 32.56 200.791 31.68C199.777 30.8 198.977 29.3467 198.391 27.32H197.991C197.644 28.9733 197.071 30.3333 196.271 31.4C195.471 32.4667 194.284 33 192.711 33Z" fill="#93C5FD"/>
<path d="M13.5 15C13.5 20.799 18 25.5 18 25.5C18 25.5 22.5 20.799 22.5 15C22.5 9.201 18 4.5 18 4.5C18 4.5 13.5 9.201 13.5 15Z" stroke="url(#paint0_angular_332_2021)" stroke-width="3.5" stroke-linecap="round" stroke-linejoin="round"/>
<path d="M9.495 12C6.1725 10.569 3 10.5 3 10.5C3 10.5 3.144 17.0715 7.2855 21.2145C11.427 25.3575 18 25.5 18 25.5C18 25.5 24.5715 25.356 28.7145 21.2145C32.8575 17.073 33 10.5 33 10.5C33 10.5 29.829 10.569 26.505 12M18.03 25.5C17.781 27.4995 18.99 31.5 23.271 31.5C26.2635 31.5 27.7605 28.5 33 31.5C32.4 28.5 31.2 26.58 29.4495 25.5M17.9685 25.5C18.219 27.4995 17.0085 31.5 12.7305 31.5C9.735 31.5 8.2395 28.5 3 31.5C3.6 28.5 4.8 26.58 6.5505 25.5" stroke="url(#paint1_angular_332_2021)" stroke-width="3.5" stroke-linecap="round" stroke-linejoin="round"/>
<defs>
<radialGradient id="paint0_angular_332_2021" cx="0" cy="0" r="1" gradientUnits="userSpaceOnUse" gradientTransform="translate(18 15) rotate(90) scale(10.5 4.5)">
<stop stop-color="#547683"/>
<stop offset="1" stop-color="#93C5FD"/>
</radialGradient>
<radialGradient id="paint1_angular_332_2021" cx="0" cy="0" r="1" gradientUnits="userSpaceOnUse" gradientTransform="translate(18 21) rotate(90) scale(10.5 15)">
<stop stop-color="#547683"/>
<stop offset="1" stop-color="#93C5FD"/>
</radialGradient>
</defs>
</svg>
